<?xml version="1.0" encoding="utf-8"?>
<!-- Generator: Adobe Illustrator 21.0.2, SVG Export Plug-In . SVG Version: 6.00 Build 0)  -->
<svg version="1.1" id="Режим_изоляции"
	 xmlns="http://www.w3.org/2000/svg" xmlns:xlink="http://www.w3.org/1999/xlink" x="0px" y="0px" viewBox="0 0 732.4 117"
	 style="enable-background:new 0 0 732.4 117;" xml:space="preserve">
<style type="text/css">
	.st0{fill:#2AAEC9;}
	.st1{fill:#FFFFFF;}
</style>
<g>
	<g>
		<polygon class="st0" points="94.9,6 95.7,6.8 93,9.5 104.9,21.4 104.9,6 		"/>
		<polygon class="st0" points="3.5,99 3.5,99 0.7,101.8 0,101.1 0,110.9 15.4,110.9 3.5,99 		"/>
		<polygon class="st0" points="86.4,16.1 76.2,6 70.6,6 83.6,18.9 80.8,21.7 104.9,45.9 104.9,29.1 89.2,13.3 		"/>
		<polygon class="st0" points="13,89.5 0,76.6 0,82.2 10.2,92.3 7.4,95.1 23.1,110.9 39.9,110.9 15.8,86.7 		"/>
		<polygon class="st0" points="64.7,37.9 64.7,37.9 61.9,40.6 27.2,6 21.6,6 59.1,43.4 56.3,46.3 56.3,46.3 56.3,46.3 104.9,94.8 
			104.9,78.1 64.7,37.9 		"/>
		<polygon class="st0" points="74.1,28.4 51.7,6 46.2,6 71.4,31.2 68.6,34 104.9,70.3 104.9,53.6 76.9,25.6 		"/>
		<polygon class="st0" points="25.2,77.3 0,52.1 0,57.7 22.4,80.1 19.6,82.9 47.6,110.9 64.4,110.9 28,74.5 		"/>
		<polygon class="st0" points="40.2,62.3 40.2,62.3 37.4,65.1 0,27.8 0,33.3 34.6,67.9 31.8,70.6 31.9,70.7 31.8,70.7 72.1,110.9 
			88.8,110.9 40.3,62.3 		"/>
		<polygon class="st0" points="49.6,52.9 2.6,6 0,6 0,9 46.8,55.7 44.1,58.4 95.9,110.9 104.9,110.9 104.9,103.1 52.5,50 		"/>
	</g>
	<g>
		<path class="st1" d="M219.2,103.2V31.1l-54.9,72.1H156V13.9h9.6V86l54.8-72.1h8.3v89.3H219.2z"/>
		<path class="st1" d="M300.8,77.6l-35.7-47.1v72.7h-9.6V13.9h8.3l37,48.5l37-48.5h8.3v89.3h-9.5V30.5L300.8,77.6z"/>
		<path class="st1" d="M445.5,91c-8.9,8.9-19.8,13.4-32.5,13.4c-12.7,0-23.6-4.5-32.5-13.4c-8.9-8.9-13.4-19.8-13.4-32.5
			c0-12.7,4.5-23.6,13.4-32.5c8.9-8.9,19.8-13.4,32.5-13.4c12.7,0,23.6,4.5,32.5,13.4c8.9,8.9,13.4,19.8,13.4,32.5
			C458.9,71.3,454.5,82.1,445.5,91z M387.2,84.9c7,7.1,15.6,10.7,25.8,10.7c10.2,0,18.8-3.6,25.8-10.7c7-7.1,10.5-15.9,10.5-26.3
			c0-10.5-3.5-19.2-10.5-26.3c-7-7.1-15.6-10.7-25.8-10.7c-10.2,0-18.8,3.6-25.8,10.7c-7,7.1-10.5,15.9-10.5,26.3
			C376.7,69,380.2,77.8,387.2,84.9z"/>
		<path class="st1" d="M538.8,13.9v9h-28.1v80.3h-9.5V22.8h-28.1v-9H538.8z"/>
		<path class="st1" d="M625.5,91c-8.9,8.9-19.8,13.4-32.5,13.4c-4.5,0-8.9-0.6-13.1-1.9c-4.2-1.3-7.7-2.8-10.5-4.6
			c-2.8-1.8-5.2-3.6-7.3-5.4c-2.1-1.8-3.7-3.4-4.6-4.7L556,86l6.4-5.8c0.2,0.4,0.7,1,1.2,1.6c0.6,0.7,1.8,1.9,3.7,3.6
			c1.9,1.7,4,3.3,6.1,4.7c2.2,1.4,5,2.6,8.6,3.7c3.5,1.1,7.2,1.7,11,1.7c9.7,0,17.9-3.2,24.7-9.5c6.8-6.3,10.7-14.2,11.7-23.6h-47.2
			v-9h47.2c-1.3-9.2-5.3-16.8-11.9-22.8c-6.6-6-14.8-9.1-24.5-9.1c-3.8,0-7.5,0.5-10.9,1.6c-3.4,1.1-6.3,2.3-8.5,3.8
			c-2.2,1.5-4.2,3-5.8,4.5c-1.7,1.5-2.9,2.8-3.6,3.9l-1.1,1.6l-6.4-5.7c0.3-0.5,0.8-1.2,1.5-2c0.6-0.8,2.1-2.3,4.4-4.4
			s4.7-4,7.3-5.7c2.6-1.7,6-3.1,10.2-4.5c4.2-1.3,8.6-2,13.1-2c12.8,0,23.6,4.5,32.5,13.4c8.9,8.9,13.4,19.8,13.4,32.5
			C638.9,71.3,634.4,82.1,625.5,91z"/>
		<path class="st1" d="M717.1,13.9h12.1l-33.8,37l37,52.3h-11.5L689,57.9L671.2,77v26.2h-9.6V13.9h9.6v50.4L717.1,13.9z"/>
	</g>
</g>
</svg>
