<svg xmlns="http://www.w3.org/2000/svg" viewBox="0 0 686.44 70.78" fill="#fff">
    <title>
        logo
    </title>
    <g id="Слой_2" data-name="Слой 2">
        <g id="Layer_1" data-name="Layer 1">
            <rect width="4.33" height="38.38" y="16.2"/>
            <polygon points="51.81 16.2 56.87 16.2 70.17 45.55 83.38 16.2 88.54 16.2 88.54 54.58 84.21 54.58 84.21 23.49 70.23 54.22 70.01 54.22 56.03 23.55 56.03 54.58 51.81 54.58 51.81 16.2"/>
            <polygon points="579.72 16.2 584.78 16.2 598.09 45.55 611.3 16.2 616.45 16.2 616.45 54.58 612.12 54.58 612.12 23.49 598.14 54.22 597.92 54.22 583.94 23.55 583.94 54.58 579.72 54.58 579.72 16.2"/>
            <path d="M130.12,16.2h14.37c8.66,0,14.36,4.61,14.36,12.28,0,8.28-6.91,12.56-15.08,12.56h-9.32V54.58h-4.33Zm13.82,20.89c6.36,0,10.53-3.4,10.53-8.55,0-5.48-4.11-8.34-10.31-8.34h-9.7V37.09Z"/>
            <path d="M297.65,16.2h16.5c4.72,0,8.5,1.42,10.91,3.84a10.68,10.68,0,0,1,3,7.67c0,6.36-4.39,10.09-10.42,11.19L329.4,54.58h-5.32L313,39.67H302V54.58h-4.33Zm16.12,19.57c5.76,0,9.87-3,9.87-8,0-4.71-3.62-7.56-9.81-7.56H302V35.77Z"/>
            <polygon points="377.03 20.2 364.15 20.2 364.15 16.2 394.3 16.2 394.3 20.2 381.42 20.2 381.42 54.58 377.03 54.58 377.03 20.2"/>
            <polygon points="433.14 16.2 437.47 16.2 437.47 33.25 459.62 33.25 459.62 16.2 463.95 16.2 463.95 54.58 459.62 54.58 459.62 37.31 437.47 37.31 437.47 54.58 433.14 54.58 433.14 16.2"/>
            <path d="M503.83,35.39c0-10.58,7.95-19.85,19.63-19.85S543,24.7,543,35.39,535,55.24,523.35,55.24s-19.52-9.15-19.52-19.85m34.65,0c0-8.72-6.36-15.84-15.13-15.84s-15,7-15,15.84,6.36,15.85,15.13,15.85,15-7,15-15.85"/>
            <polygon points="658.42 16.2 686.16 16.2 686.16 20.15 662.75 20.15 662.75 33.25 683.7 33.25 683.7 37.2 662.75 37.2 662.75 50.63 686.44 50.63 686.44 54.58 658.42 54.58 658.42 16.2"/>
            <path d="M244.38,52.27c0-.49-.1-1-.18-1.45a20,20,0,0,0-8.56-13.54,14.46,14.46,0,0,1-4,1.64,17,17,0,0,1,9.25,13.33,17.24,17.24,0,0,1-14.58-12.62,32.73,32.73,0,0,0-4.79.81,17,17,0,0,1-14.36,11.81c.85-7.9,5.75-13.57,14.56-15,4.71-.75,7.64-1.09,10.91-2.27,6.41-2.31,10.45-8.1,11.55-15.06.07-.48.13-1,.17-1.46v-.29c0-.5.06-1,.06-1.52s0-1.11-.06-1.66q-.82-.06-1.66-.06c-.51,0-1,0-1.52.06l-.29,0c-.52,0-1,.11-1.54.2A20.44,20.44,0,0,0,224,27.2a20.43,20.43,0,0,0-15.25-11.94c-.54-.09-1.08-.16-1.63-.21l-.29,0c-.5,0-1-.06-1.52-.06s-1.11,0-1.66.06q-.06.82-.06,1.66c0,.51,0,1,.06,1.52v.29c0,.53.11,1.05.2,1.57a20,20,0,0,0,8.78,13.58,21.25,21.25,0,0,1,4-1.69,17,17,0,0,1-9.48-13.45,17,17,0,0,1,14.53,12.4c1.53-.18,3.9-.41,4.86-.67a16.65,16.65,0,0,1,14.34-11.72C239.54,30.69,229.81,33,223.47,33.63,218.15,34.19,206,37,203.89,50.7q-.12.76-.19,1.57s-.1.18,0,.29c0,.5-.06,1-.06,1.52s0,1.11.06,1.66q.82.06,1.66.06c.51,0,1,0,1.52-.06h.29c.54,0,1.09-.12,1.62-.21A20.42,20.42,0,0,0,224,43.59,20.44,20.44,0,0,0,239.4,55.53c.5.08,1,.15,1.53.2h.29c.5,0,1,.06,1.52.06s1.11,0,1.66-.06q.06-.82.06-1.66c0-.51,0-1-.06-1.52Z"/>
            <path d="M224,70.78a35.39,35.39,0,1,1,35.39-35.39A35.43,35.43,0,0,1,224,70.78Zm0-67.25A31.86,31.86,0,1,0,255.9,35.39,31.9,31.9,0,0,0,224,3.53Z"/>
        </g>
    </g>
</svg>
