<svg viewBox="0 0 231 35" fill="none" xmlns="http://www.w3.org/2000/svg">
<path d="M190.693 20.268V13.3775H180.296V20.268H190.693ZM177.185 26.667V8.08128H194.081V0.828094H173.556C171.552 0.828094 169.928 2.4515 169.928 4.45469V30.2944C169.928 32.2968 171.552 33.921 173.556 33.921H194.53V26.667H177.185Z" fill="white"/>
<path d="M146.324 33.921H153.581V11.1926H146.324V33.921ZM136.987 0.828094V8.08128H163.367V0.828094H136.987Z" fill="white"/>
<path d="M119.607 34.7483C110.686 34.7483 103.428 26.9545 103.428 17.3741C103.428 7.79383 110.686 0 119.607 0C125.51 0 130.944 3.45011 133.788 9.00394L127.388 12.2783C125.779 9.13723 122.799 7.18617 119.607 7.18617C114.65 7.18617 110.618 11.7563 110.618 17.3741C110.618 22.992 114.65 27.5621 119.607 27.5621C122.848 27.5621 125.855 25.5641 127.449 22.3479L133.891 25.5396C131.074 31.22 125.6 34.7483 119.607 34.7483Z" fill="white"/>
<path d="M92.2468 0.828076L86.1792 20.5778C84.9029 24.7346 82.3948 27.1175 79.2989 27.1175C77.9182 27.1175 76.6798 26.6752 75.5116 25.7652L71.0496 31.4851C73.5065 33.4004 76.2819 34.3707 79.2989 34.3707C85.7068 34.3707 90.8734 30.0106 93.1171 22.7068L99.8382 0.827332H92.2468V0.828076ZM80.4701 22.467C80.8884 22.467 81.3134 22.394 81.7289 22.2406C83.6083 21.5458 84.5677 19.46 83.8733 17.5812L77.6721 0.827332H69.9346L77.0675 20.0974C77.6093 21.5622 78.9951 22.467 80.4701 22.467Z" fill="white"/>
<path d="M230.123 11.6669C230.123 5.79139 225.21 0.828094 219.394 0.828094H208.887C205.647 0.828094 203.012 3.46277 203.012 6.70065V33.921H210.269V8.08128H219.394C221.032 8.08128 222.866 9.61533 222.866 11.6669C222.866 13.7178 221.031 15.2503 219.392 15.2503H213.381V22.5043H219.392C225.209 22.5043 230.123 17.5417 230.123 11.6669Z" fill="white"/>
<path d="M24.5355 14.846C24.9977 13.6895 25.2547 12.4325 25.2547 11.1173C25.2547 5.44437 20.535 0.828094 14.7324 0.828094H6.77441C3.03965 0.828094 0 3.8649 0 7.59873V33.8897H7.25705V8.08128H14.7324C16.533 8.08128 17.9977 9.44331 17.9977 11.1173C17.9977 12.7631 16.5023 14.1534 14.7324 14.1534H10.3697V20.5889H19.0644C20.8643 20.5889 22.3297 21.9525 22.3297 23.628C22.3297 25.3043 20.865 26.6678 19.0644 26.6678H10.3697V33.921H19.0644C24.8663 33.921 29.5868 29.3039 29.5868 23.628C29.5868 19.9128 27.5613 16.6555 24.5355 14.846Z" fill="white"/>
<path d="M44.1585 0.828094H36.9022V33.921H44.1585V0.828094Z" fill="white"/>
<path d="M56.4924 17.1925L62.7338 0.828094H54.9685L49.9874 13.8853C49.1667 13.6917 48.3409 13.5674 47.5231 13.5405L47.2712 13.5324V20.79H47.2858C49.6011 20.866 52.7116 22.9235 53.6864 25.0243L57.8154 33.9202H65.8151L60.2702 21.9726C59.4371 20.1794 58.1053 18.5411 56.4924 17.1925Z" fill="white"/>
</svg>
