<?xml version="1.0" encoding="utf-8"?>
<!-- Generator: Adobe Illustrator 22.1.0, SVG Export Plug-In . SVG Version: 6.00 Build 0)  -->
<svg version="1.1" id="Слой_1" xmlns="http://www.w3.org/2000/svg" xmlns:xlink="http://www.w3.org/1999/xlink" x="0px" y="0px"
	 viewBox="0 0 510.2 85" style="enable-background:new 0 0 510.2 85;" xml:space="preserve">
<style type="text/css">
	.st0{fill:#ffffff;}
</style>
<path class="st0" d="M14,38.5v-4.9h1.3c2.4,0,3.1,1.2,3.1,2.5s-0.6,2.4-3.1,2.4L14,38.5z M0,25.2v35h20.6c9.7,0,11.8-6.2,11.8-9.8
	c0.1-4.5-3.3-8.3-7.7-8.9v-0.1c2.9-0.8,6.1-3.3,6.1-7.3c0-2.7-1-8.9-11.1-8.9L0,25.2z M14,51.7v-5.2h1.7c1.3,0,3.5,0.2,3.5,2.6
	s-2.2,2.6-3.5,2.6H14z"/>
<path class="st0" d="M54.5,50c-3.5,0-6.9-2.5-6.9-7.4s3.3-7.4,6.9-7.4s6.9,2.5,6.9,7.4S58.1,50,54.5,50z M54.5,61.2
	c13.6,0,20.2-9.1,20.2-18.6s-6.5-18.5-20.2-18.5s-20.1,9.1-20.1,18.6S40.9,61.2,54.5,61.2L54.5,61.2z"/>
<path class="st0" d="M105.6,59.1c-2.9,1.5-6.1,2.2-9.3,2.1c-11.4,0-19.4-7.3-19.4-18.6c0-12.7,10.4-18.6,19.2-18.6
	c3.4,0,6.7,0.9,9.6,2.6V39c-1.9-2.3-4.7-3.7-7.7-3.7c-5.2,0-7.7,3.5-7.7,7.7c0,4.5,3.2,7,7.6,7c2.9-0.1,5.7-1.2,7.8-3.2L105.6,59.1z
	"/>
<path class="st0" d="M114,35.3h-7.3V25.2h28.6v10.1H128v24.9h-14V35.3z"/>
<path class="st0" d="M156.4,50c-3.5,0-6.9-2.5-6.9-7.4s3.3-7.4,6.9-7.4s6.9,2.5,6.9,7.4S160,50,156.4,50z M156.4,61.2
	c13.6,0,20.2-9.1,20.2-18.6s-6.5-18.6-20.2-18.6s-20.1,9.1-20.1,18.6S142.8,61.2,156.4,61.2L156.4,61.2z"/>
<path class="st0" d="M180.3,25.2h14v12.6l7.7-12.6h15.3l-11.9,16.6l12.2,18.4h-16l-7.3-13.3v13.3h-14V25.2z"/>
<path class="st0" d="M283.2,23.2l-0.9,0.9c-0.2,0.2-22.3,23.5-25.8,26.4c-0.7,0.7-1.6,1-2.6,1c-0.6-0.1-1.1-0.4-1.5-0.8
	c-1.7-1.8,0.3-4.1,0.3-4.2l17.7-18.7c8.7-9.1,0.4-18,0.3-18L261.3,0l-0.9,0.9l-42.5,42.7L259.1,85L302,42L283.2,23.2z M255.3,19.2
	l6.2-6.2c1.1,1.1,3,3.1,3,3.1c0.8,0.7,1.2,1.6,1.3,2.6c0,0.7-0.3,1.3-0.8,1.7l-4.3,4.3C259.8,22.3,257.8,20.2,255.3,19.2L255.3,19.2
	z M246.5,28.2c1-0.9,2.3-1.5,3.6-1.6c1,0.1,1.9,0.5,2.5,1.3c0.8,0.7,1.3,1.8,1.3,2.9c-0.1,1-0.6,2-1.4,2.7l-8.8,9.4
	c-0.1,0.1-5.5,7.1,2.8,14.2s14.4,0.8,14.5,0.7l8.1-8.2c0.1-0.1,2.2-1.6,4.8,1.1c0.9,0.8,1.4,1.8,1.5,3c-0.1,1.3-0.7,2.6-1.8,3.5l0,0
	c0,0-12.9,13.1-14.5,14.8l-28.2-28.4L246.5,28.2z M277,42.2c1.6-1.6,5.2-5.2,6.4-6.4l6.1,6.2c-1.2,1.2-4.7,4.7-6.6,6.5
	c-0.6-1.5-1.6-2.9-2.8-4.1C279.2,43.6,278.1,42.9,277,42.2L277,42.2z"/>
<path class="st0" d="M338.2,59.1c-2.9,1.5-6.1,2.2-9.4,2.1c-11.4,0-19.4-7.3-19.4-18.6c0-12.7,10.4-18.6,19.2-18.6
	c3.4,0,6.7,0.9,9.6,2.6V39c-1.9-2.3-4.7-3.7-7.7-3.7c-5.2,0-7.7,3.5-7.7,7.7c0,4.5,3.2,7,7.6,7c2.9-0.1,5.7-1.2,7.8-3.2L338.2,59.1z
	"/>
<path class="st0" d="M342.1,25.2h24.4v10.1h-10.5v3h9.4v8.4h-9.4V50h10.5v10.2h-24.4V25.2z"/>
<path class="st0" d="M384.7,34.2h1.5c1.1,0,3.3,0.2,3.3,3c0,1.4-0.5,3-3.3,3h-1.5V34.2z M370.7,60.2h14V49.3h4.2
	c11,0,13.9-7,13.9-12.1s-2.8-12-13.9-12h-18.2L370.7,60.2z"/>
<path class="st0" d="M420.3,38.5v-4.9h1.3c2.4,0,3.1,1.2,3.1,2.5s-0.6,2.4-3.1,2.4L420.3,38.5z M406.3,25.2v35h20.6
	c9.7,0,11.8-6.2,11.8-9.8c0.1-4.5-3.2-8.3-7.6-8.9v-0.1c2.9-0.8,6.1-3.3,6.1-7.3c0-2.7-1.1-8.9-11.1-8.9H406.3z M420.3,51.7v-5.2
	h1.7c1.4,0,3.5,0.2,3.5,2.6s-2.2,2.6-3.5,2.6H420.3z"/>
<path class="st0" d="M455.5,25.2v17.5l9.7-17.5h12.6v35h-13.3V43.4l-9.8,16.8h-12.5v-35H455.5z"/>
<path class="st0" d="M510.2,59.1c-2.9,1.5-6.1,2.2-9.4,2.1c-11.4,0-19.4-7.3-19.4-18.6c0-12.7,10.4-18.6,19.2-18.6
	c3.4,0,6.7,0.9,9.6,2.6V39c-1.9-2.3-4.7-3.7-7.7-3.7c-5.2,0-7.7,3.5-7.7,7.7c0,4.5,3.3,7,7.6,7c2.9-0.1,5.7-1.2,7.8-3.2V59.1z"/>
</svg>
